<svg version="1.1" id="Layer_1" xmlns="http://www.w3.org/2000/svg" xmlns:xlink="http://www.w3.org/1999/xlink" x="0px" y="0px"
	 width="100%" viewBox="0 0 512 512" enable-background="new 0 0 512 512" xml:space="preserve">
<path fill="#E64C3C" opacity="1.000000" stroke="none" 
	d="
M172.000000,1.000000 
	C179.020950,1.000000 186.041901,1.000000 193.327423,1.378945 
	C194.099472,2.146866 194.561325,2.786057 195.121094,2.888136 
	C208.267670,5.285509 221.411209,7.704539 234.583191,9.956375 
	C254.688293,13.393474 274.830750,16.613651 294.926819,20.101746 
	C313.245789,23.281370 331.526001,26.684736 349.819763,30.008724 
	C364.098389,32.603153 378.357788,35.306255 392.651520,37.813942 
	C405.032288,39.986027 417.463898,41.868290 429.845306,44.036854 
	C438.280792,45.514305 446.668518,47.264343 454.758118,49.073898 
	C453.639160,51.374508 452.488892,53.430511 452.093872,55.622616 
	C447.757599,79.685730 443.536743,103.769661 439.288940,127.848717 
	C430.822266,175.843201 422.383392,223.842606 413.880615,271.830688 
	C410.631165,290.170013 407.238098,308.483856 403.507324,326.838928 
	C393.448669,325.151367 383.795288,323.422241 374.137360,321.718872 
	C295.427002,307.836456 216.703003,294.030487 138.020554,279.991699 
	C127.858574,278.178528 120.363770,280.914307 115.161224,289.428040 
	C124.273865,237.122894 133.422668,185.222900 142.499969,133.310410 
	C144.730652,120.553230 146.728012,107.755257 148.901733,94.557358 
	C150.366333,85.643471 151.692535,77.136177 153.172058,68.655640 
	C156.072998,52.027702 158.953568,35.394825 162.065872,18.805883 
	C163.204102,12.739018 164.723328,6.671703 170.959793,3.376871 
	C171.558105,3.060765 171.664978,1.814475 172.000000,1.000000 
M179.054352,242.688797 
	C201.512772,246.624847 223.973740,250.546509 246.429062,254.500153 
	C283.802826,261.080414 321.168579,267.706482 358.548981,274.248688 
	C364.888367,275.358154 368.864624,272.811981 369.943481,266.819794 
	C375.016296,238.644272 380.028564,210.457397 384.912231,182.248581 
	C386.258240,174.473831 383.745514,171.252426 375.747467,169.821609 
	C348.879089,165.014908 321.999969,160.268005 295.123383,155.507263 
	C262.511169,149.730530 229.901199,143.940781 197.281082,138.208954 
	C190.207626,136.966049 186.235260,139.682770 185.022491,146.483643 
	C180.055069,174.339600 175.107727,202.199188 170.208328,230.067184 
	C168.939896,237.282074 171.147614,240.555176 179.054352,242.688797 
M345.758453,83.726830 
	C352.974670,84.981781 360.191406,86.233643 367.406952,87.492409 
	C378.066101,89.351906 388.702484,91.356750 399.391388,93.025146 
	C405.653320,94.002556 409.838928,91.219589 410.783936,86.088837 
	C411.698090,81.125252 408.392548,77.081696 402.339783,75.767578 
	C401.200684,75.520271 400.062012,75.265732 398.914520,75.063286 
	C342.520935,65.114273 286.127777,55.163059 229.730591,45.234428 
	C221.206436,43.733765 212.692276,42.124386 204.118439,40.976528 
	C198.640152,40.243099 194.671341,43.482037 194.049484,48.348244 
	C193.447464,53.059155 196.237747,56.823097 201.321762,58.119617 
	C202.450699,58.407520 203.594498,58.648174 204.742081,58.850395 
	C251.466095,67.083969 298.191315,75.310654 345.758453,83.726830 
M263.538727,96.002342 
	C253.207443,94.207230 242.879181,92.394272 232.541412,90.637291 
	C231.082489,90.389336 229.536224,90.145454 228.100922,90.363632 
	C223.740921,91.026352 220.754852,94.759056 220.816589,99.153816 
	C220.883392,103.911621 223.804565,106.975639 229.351105,107.956940 
	C249.510361,111.523483 269.674530,115.062088 289.837433,118.608086 
	C312.296143,122.557854 334.749878,126.536690 357.218140,130.431488 
	C363.621185,131.541458 368.586792,127.579483 368.443329,121.715637 
	C368.327118,116.964951 365.330658,113.998154 359.286163,112.922539 
	C327.659973,107.294662 296.026672,101.706604 263.538727,96.002342 
z"/>
<path fill="#32465A" opacity="1.000000" stroke="none" 
	d="
M148.832642,94.976044 
	C146.728012,107.755257 144.730652,120.553230 142.499969,133.310410 
	C133.422668,185.222900 124.273865,237.122894 114.965332,289.804749 
	C112.030777,302.033356 116.428909,309.750580 128.350281,315.028076 
	C125.328644,332.349731 122.403946,349.207947 119.081657,366.084625 
	C118.185432,366.108093 117.686295,366.100403 117.188232,366.119934 
	C107.144424,366.513428 99.630150,372.946869 98.921265,381.755890 
	C98.102249,391.933411 103.629700,399.167572 114.001137,401.289459 
	C119.045044,402.321411 124.141678,403.092926 129.204651,404.034943 
	C144.869873,406.949585 160.530365,409.889465 175.771301,412.906311 
	C152.940704,417.014130 130.532043,421.038208 108.122108,425.055176 
	C93.619820,427.654724 83.898148,441.080231 86.195496,455.350098 
	C88.504829,469.694366 102.304192,479.661560 116.908257,477.162445 
	C145.688522,472.237457 174.434296,467.110657 203.190842,462.047424 
	C245.173523,454.655457 287.153107,447.245941 329.564789,439.865723 
	C333.929749,440.417023 337.859680,440.980743 341.798798,441.470428 
	C366.497253,444.541016 390.504669,453.521851 415.798035,450.453094 
	C412.844788,458.855865 406.862244,462.634613 398.647308,463.990143 
	C379.103729,467.215057 359.599487,470.680573 340.090057,474.109711 
	C306.106903,480.082916 272.132233,486.104767 238.153152,492.101074 
	C204.145782,498.102478 170.131332,504.064301 136.141632,510.164154 
	C133.671021,510.607513 131.376419,512.031799 129.000000,513.000000 
	C118.645775,513.000000 108.291542,513.000000 97.470230,512.623657 
	C96.344124,511.823761 95.738571,511.239105 95.018326,511.000061 
	C72.730316,503.603851 57.673012,488.997894 52.045715,466.021271 
	C48.790668,452.730682 47.109844,439.056061 44.679966,425.561584 
	C40.816200,404.103882 36.830215,382.667847 33.056686,361.194366 
	C27.877811,331.723785 22.873325,302.222534 17.748852,272.742310 
	C13.166059,246.378311 8.564037,220.017380 3.831673,193.680038 
	C3.414568,191.358704 1.968272,189.222305 0.999998,187.000000 
	C1.000000,178.645767 1.000000,170.291534 1.377867,161.455811 
	C2.385876,159.512222 3.199329,158.100739 3.618803,156.580521 
	C10.453006,131.812546 30.745621,115.152473 55.197384,110.993507 
	C75.523293,107.536301 95.823021,103.925499 116.142776,100.431755 
	C127.030220,98.559792 137.935440,96.791260 148.832642,94.976044 
z"/>
<path fill="#000000" opacity="1.000000" stroke="none" 
	d="
M129.468658,513.000000 
	C131.376419,512.031799 133.671021,510.607513 136.141632,510.164154 
	C170.131332,504.064301 204.145782,498.102478 238.153152,492.101074 
	C272.132233,486.104767 306.106903,480.082916 340.090057,474.109711 
	C359.599487,470.680573 379.103729,467.215057 398.647308,463.990143 
	C406.862244,462.634613 412.844788,458.855865 416.194977,450.400513 
	C443.059418,443.254089 461.600067,422.056915 464.500305,394.938538 
	C465.898621,388.418518 466.952881,382.146637 468.038574,375.880219 
	C470.235291,363.201080 472.425537,350.520721 474.663422,337.848816 
	C476.419861,327.902863 478.280975,317.975342 480.029266,308.028015 
	C482.626678,293.249512 485.162445,278.460236 487.730347,263.676544 
	C490.162323,249.675079 492.599396,235.674515 495.038788,221.674332 
	C497.505768,207.516083 499.965271,193.356537 502.451843,179.201736 
	C504.967468,164.881439 507.435059,150.551819 510.109802,136.261108 
	C510.640350,133.426392 512.014709,130.749603 513.000000,127.999992 
	C513.000000,256.260284 513.000000,384.520599 513.000000,513.000000 
	C385.312531,513.000000 257.624908,513.000000 129.468658,513.000000 
z"/>
<path fill="#C03A2B" opacity="1.000000" stroke="none" 
	d="
M513.000000,127.531334 
	C512.014709,130.749603 510.640350,133.426392 510.109802,136.261108 
	C507.435059,150.551819 504.967468,164.881439 502.451843,179.201736 
	C499.965271,193.356537 497.505768,207.516083 495.038788,221.674332 
	C492.599396,235.674515 490.162323,249.675079 487.730347,263.676544 
	C485.162445,278.460236 482.626678,293.249512 480.029266,308.028015 
	C478.280975,317.975342 476.419861,327.902863 474.663422,337.848816 
	C472.425537,350.520721 470.235291,363.201080 468.038574,375.880219 
	C466.952881,382.146637 465.898621,388.418518 464.240112,394.671936 
	C464.704865,371.674988 455.936523,353.269501 437.725861,339.347198 
	C427.759949,331.728149 415.959564,328.894501 403.910522,326.809326 
	C407.238098,308.483856 410.631165,290.170013 413.880615,271.830688 
	C422.383392,223.842606 430.822266,175.843201 439.288940,127.848717 
	C443.536743,103.769661 447.757599,79.685730 452.093872,55.622616 
	C452.488892,53.430511 453.639160,51.374508 455.181824,49.109665 
	C457.854919,49.293869 459.796448,49.567276 461.712982,49.962097 
	C487.124359,55.197010 503.397003,70.423126 511.094238,95.075562 
	C511.333160,95.840790 512.347290,96.363968 513.000000,97.000000 
	C513.000000,107.020897 513.000000,117.041786 513.000000,127.531334 
z"/>
<path fill="#000000" opacity="1.000000" stroke="none" 
	d="
M148.901733,94.557358 
	C137.935440,96.791260 127.030220,98.559792 116.142776,100.431755 
	C95.823021,103.925499 75.523293,107.536301 55.197384,110.993507 
	C30.745621,115.152473 10.453006,131.812546 3.618803,156.580521 
	C3.199329,158.100739 2.385876,159.512222 1.377867,160.987152 
	C1.000000,107.737228 1.000000,54.474453 1.000000,1.000000 
	C57.687386,1.000000 114.375031,1.000000 171.531342,1.000000 
	C171.664978,1.814475 171.558105,3.060765 170.959793,3.376871 
	C164.723328,6.671703 163.204102,12.739018 162.065872,18.805883 
	C158.953568,35.394825 156.072998,52.027702 153.172058,68.655640 
	C151.692535,77.136177 150.366333,85.643471 148.901733,94.557358 
z"/>
<path fill="#000000" opacity="1.000000" stroke="none" 
	d="
M0.999998,187.468658 
	C1.968272,189.222305 3.414568,191.358704 3.831673,193.680038 
	C8.564037,220.017380 13.166059,246.378311 17.748852,272.742310 
	C22.873325,302.222534 27.877811,331.723785 33.056686,361.194366 
	C36.830215,382.667847 40.816200,404.103882 44.679966,425.561584 
	C47.109844,439.056061 48.790668,452.730682 52.045715,466.021271 
	C57.673012,488.997894 72.730316,503.603851 95.018326,511.000061 
	C95.738571,511.239105 96.344124,511.823761 97.001572,512.623657 
	C65.033195,513.000000 33.066391,513.000000 1.000000,513.000000 
	C1.000000,404.645782 1.000000,296.291565 0.999998,187.468658 
z"/>
<path fill="#000000" opacity="1.000000" stroke="none" 
	d="
M513.000000,96.531342 
	C512.347290,96.363968 511.333160,95.840790 511.094238,95.075562 
	C503.397003,70.423126 487.124359,55.197010 461.712982,49.962097 
	C459.796448,49.567276 457.854919,49.293869 455.501282,48.928261 
	C446.668518,47.264343 438.280792,45.514305 429.845306,44.036854 
	C417.463898,41.868290 405.032288,39.986027 392.651520,37.813942 
	C378.357788,35.306255 364.098389,32.603153 349.819763,30.008724 
	C331.526001,26.684736 313.245789,23.281370 294.926819,20.101746 
	C274.830750,16.613651 254.688293,13.393474 234.583191,9.956375 
	C221.411209,7.704539 208.267670,5.285509 195.121094,2.888136 
	C194.561325,2.786057 194.099472,2.146866 193.796005,1.378945 
	C300.221161,1.000000 406.442291,1.000000 513.000000,1.000000 
	C513.000000,32.686768 513.000000,64.374725 513.000000,96.531342 
z"/>
<path fill="#803034" opacity="1.000000" stroke="none" 
	d="
M403.507324,326.838928 
	C415.959564,328.894501 427.759949,331.728149 437.725861,339.347198 
	C455.936523,353.269501 464.704865,371.674988 463.910339,394.922546 
	C461.600067,422.056915 443.059418,443.254089 416.353760,450.096130 
	C390.504669,453.521851 366.497253,444.541016 341.798798,441.470428 
	C337.859680,440.980743 333.929749,440.417023 329.285492,439.582825 
	C324.333252,438.520630 320.092163,437.757172 315.848755,437.006653 
	C284.344391,431.434723 252.848434,425.814514 221.331009,420.317322 
	C206.306076,417.696716 191.240082,415.311432 176.192688,412.819580 
	C160.530365,409.889465 144.869873,406.949585 129.204651,404.034943 
	C124.141678,403.092926 119.045044,402.321411 114.001137,401.289459 
	C103.629700,399.167572 98.102249,391.933411 98.921265,381.755890 
	C99.630150,372.946869 107.144424,366.513428 117.188232,366.119934 
	C117.686295,366.100403 118.185432,366.108093 119.434258,366.304688 
	C163.979874,374.312592 207.764679,382.178955 251.573547,389.909088 
	C299.777679,398.414764 348.009064,406.765869 396.217438,415.247559 
	C411.154541,417.875610 425.396515,408.899567 428.015045,395.003998 
	C430.913147,379.624908 421.553284,365.922699 405.896118,363.116577 
	C371.676361,356.983582 337.421967,351.044342 303.189178,344.983734 
	C264.265533,338.092621 225.361435,331.090515 186.426193,324.265808 
	C167.126022,320.882782 147.775146,317.789154 128.447205,314.564575 
	C116.428909,309.750580 112.030777,302.033356 114.975143,290.205322 
	C120.363770,280.914307 127.858574,278.178528 138.020554,279.991699 
	C216.703003,294.030487 295.427002,307.836456 374.137360,321.718872 
	C383.795288,323.422241 393.448669,325.151367 403.507324,326.838928 
z"/>
<path fill="#ECEFF0" opacity="1.000000" stroke="none" 
	d="
M178.656799,242.586807 
	C171.147614,240.555176 168.939896,237.282074 170.208328,230.067184 
	C175.107727,202.199188 180.055069,174.339600 185.022491,146.483643 
	C186.235260,139.682770 190.207626,136.966049 197.281082,138.208954 
	C229.901199,143.940781 262.511169,149.730530 295.123383,155.507263 
	C321.999969,160.268005 348.879089,165.014908 375.747467,169.821609 
	C383.745514,171.252426 386.258240,174.473831 384.912231,182.248581 
	C380.028564,210.457397 375.016296,238.644272 369.943481,266.819794 
	C368.864624,272.811981 364.888367,275.358154 358.548981,274.248688 
	C321.168579,267.706482 283.802826,261.080414 246.429062,254.500153 
	C223.973740,250.546509 201.512772,246.624847 178.656799,242.586807 
z"/>
<path fill="#415C6B" opacity="1.000000" stroke="none" 
	d="
M345.337433,83.632523 
	C298.191315,75.310654 251.466095,67.083969 204.742081,58.850395 
	C203.594498,58.648174 202.450699,58.407520 201.321762,58.119617 
	C196.237747,56.823097 193.447464,53.059155 194.049484,48.348244 
	C194.671341,43.482037 198.640152,40.243099 204.118439,40.976528 
	C212.692276,42.124386 221.206436,43.733765 229.730591,45.234428 
	C286.127777,55.163059 342.520935,65.114273 398.914520,75.063286 
	C400.062012,75.265732 401.200684,75.520271 402.339783,75.767578 
	C408.392548,77.081696 411.698090,81.125252 410.783936,86.088837 
	C409.838928,91.219589 405.653320,94.002556 399.391388,93.025146 
	C388.702484,91.356750 378.066101,89.351906 367.406952,87.492409 
	C360.191406,86.233643 352.974670,84.981781 345.337433,83.632523 
z"/>
<path fill="#415C6B" opacity="1.000000" stroke="none" 
	d="
M263.967285,96.053528 
	C296.026672,101.706604 327.659973,107.294662 359.286163,112.922539 
	C365.330658,113.998154 368.327118,116.964951 368.443329,121.715637 
	C368.586792,127.579483 363.621185,131.541458 357.218140,130.431488 
	C334.749878,126.536690 312.296143,122.557854 289.837433,118.608086 
	C269.674530,115.062088 249.510361,111.523483 229.351105,107.956940 
	C223.804565,106.975639 220.883392,103.911621 220.816589,99.153816 
	C220.754852,94.759056 223.740921,91.026352 228.100922,90.363632 
	C229.536224,90.145454 231.082489,90.389336 232.541412,90.637291 
	C242.879181,92.394272 253.207443,94.207230 263.967285,96.053528 
z"/>
<path fill="#F8E9AF" opacity="1.000000" stroke="none" 
	d="
M128.350281,315.028076 
	C147.775146,317.789154 167.126022,320.882782 186.426193,324.265808 
	C225.361435,331.090515 264.265533,338.092621 303.189178,344.983734 
	C337.421967,351.044342 371.676361,356.983582 405.896118,363.116577 
	C421.553284,365.922699 430.913147,379.624908 428.015045,395.003998 
	C425.396515,408.899567 411.154541,417.875610 396.217438,415.247559 
	C348.009064,406.765869 299.777679,398.414764 251.573547,389.909088 
	C207.764679,382.178955 163.979874,374.312592 119.831848,366.286194 
	C122.403946,349.207947 125.328644,332.349731 128.350281,315.028076 
z"/>
<path fill="#F8E9AF" opacity="1.000000" stroke="none" 
	d="
M175.771301,412.906311 
	C191.240082,415.311432 206.306076,417.696716 221.331009,420.317322 
	C252.848434,425.814514 284.344391,431.434723 315.848755,437.006653 
	C320.092163,437.757172 324.333252,438.520630 328.854706,439.561035 
	C287.153107,447.245941 245.173523,454.655457 203.190842,462.047424 
	C174.434296,467.110657 145.688522,472.237457 116.908257,477.162445 
	C102.304192,479.661560 88.504829,469.694366 86.195496,455.350098 
	C83.898148,441.080231 93.619820,427.654724 108.122108,425.055176 
	C130.532043,421.038208 152.940704,417.014130 175.771301,412.906311 
z"/>
</svg>